<svg id="图层_1" data-name="图层 1" xmlns="http://www.w3.org/2000/svg" viewBox="0 0 56.69 56.69"><defs><style>.cls-1{fill:#fff;stroke:#fff;stroke-miterlimit:10;stroke-width:0.25px;}</style></defs><title>lofter</title><path class="cls-1" d="M50,29.19A21.7,21.7,0,1,1,28.35,7.49,21.69,21.69,0,0,1,50,29.19ZM38.86,43.25a1,1,0,0,0,.26-.76c-.41-4.78-4.27-5.44-8.39-5.44h-1c-2.59,0-5.81,0-7.21-1.34a3,3,0,0,1-.8-2.26c0-3,.12-15,.16-18.76a3.87,3.87,0,0,1,1.89,1,3.9,3.9,0,0,1,1,2.89V35.09a1,1,0,0,0,2,0V18.55a5.77,5.77,0,0,0-1.64-4.34,6.36,6.36,0,0,0-4.29-1.62,1,1,0,0,0-1,1c0,.16-.17,16.28-.17,19.88a5,5,0,0,0,1.39,3.68c2,2,5.52,1.94,8.64,1.92h.95c4.26,0,5.72.88,6.21,2.52H30.2A4.16,4.16,0,0,1,26.8,40a1,1,0,0,0-1.38-.3,1,1,0,0,0-.29,1.39,6.12,6.12,0,0,0,5.07,2.45h7.92A1,1,0,0,0,38.86,43.25Z"/></svg>