<svg id="图层_1" data-name="图层 1" xmlns="http://www.w3.org/2000/svg" viewBox="0 0 56.69 56.69"><defs><style>.cls-1{fill:#fff;stroke:#fff;stroke-miterlimit:10;stroke-width:0.25px;}</style></defs><title>lofter bilibili</title><path class="cls-1" d="M52.09,28.83A23.74,23.74,0,1,1,28.35,5.09,23.74,23.74,0,0,1,52.09,28.83ZM39.85,44.22a1.07,1.07,0,0,0,.28-.83c-.44-5.23-4.67-6-9.17-6H29.9c-2.84,0-6.37.05-7.9-1.46a3.32,3.32,0,0,1-.87-2.47c0-3.32.14-16.46.18-20.53a4.23,4.23,0,0,1,2.06,1,4.25,4.25,0,0,1,1.11,3.17V35.29a1.1,1.1,0,0,0,2.19,0V17.2a6.36,6.36,0,0,0-1.79-4.76,7,7,0,0,0-4.69-1.77,1.1,1.1,0,0,0-1.06,1.08c0,.18-.19,17.82-.19,21.76a5.46,5.46,0,0,0,1.52,4c2.18,2.16,6,2.13,9.46,2.1h1c4.67,0,6.27,1,6.8,2.75H30.37a4.49,4.49,0,0,1-3.71-1.69,1.1,1.1,0,0,0-1.84,1.19,6.68,6.68,0,0,0,5.55,2.69H39A1.12,1.12,0,0,0,39.85,44.22Z"/></svg>